HIERARCHY
ROOT Hips
{
	OFFSET 49.667400 -46.181816 100.938995
	CHANNELS 6 Xposition Yposition Zposition Xrotation Yrotation Zrotation
	JOINT spine
	{
		OFFSET 0.000000 -0.507027 8.817047
		CHANNELS 3 Xrotation Yrotation Zrotation
		JOINT spine1
		{
			OFFSET 0.000000 0.000000 10.776604
			CHANNELS 3 Xrotation Yrotation Zrotation
			JOINT spine2
			{
				OFFSET 0.000000 -0.000004 10.325905
				CHANNELS 3 Xrotation Yrotation Zrotation
				JOINT Neck
				{
					OFFSET 0.000000 -1.263954 26.510986
					CHANNELS 3 Xrotation Yrotation Zrotation
					JOINT Head
					{
						OFFSET 0.000000 0.000000 8.009659
						CHANNELS 3 Xrotation Yrotation Zrotation
						End Site
						{
							OFFSET 0.000000 6.393856 19.387909
						}
					}
				}
				JOINT RightShoulder
				{
					OFFSET -4.347950 0.605423 11.151199
					CHANNELS 3 Xrotation Yrotation Zrotation
					JOINT RightArm
					{
						OFFSET 0.000000 -0.000004 14.625793
						CHANNELS 3 Xrotation Yrotation Zrotation
						JOINT RightArmRoll
						{
							OFFSET 0.000000 0.000000 7.383408
							CHANNELS 3 Xrotation Yrotation Zrotation
							JOINT RightForeArm
							{
								OFFSET 0.000000 -0.000004 21.505203
								CHANNELS 3 Xrotation Yrotation Zrotation
								JOINT RightForeArmRoll
								{
									OFFSET 0.000000 0.000000 8.285324
									CHANNELS 3 Xrotation Yrotation Zrotation
									JOINT RightHand
									{
										OFFSET 0.000000 -0.000004 16.626801
										CHANNELS 3 Xrotation Yrotation Zrotation
										End Site
										{
											OFFSET 0.000000 0.000000 0.100006
										}
									}
								}
							}
						}
					}
				}
				JOINT LeftShoulder
				{
					OFFSET 4.347950 0.605423 11.151199
					CHANNELS 3 Xrotation Yrotation Zrotation
					JOINT LeftArm
					{
						OFFSET 0.000000 -0.000004 14.625793
						CHANNELS 3 Xrotation Yrotation Zrotation
						JOINT LeftArmRoll
						{
							OFFSET 0.000000 0.000000 7.383408
							CHANNELS 3 Xrotation Yrotation Zrotation
							JOINT LeftForeArm
							{
								OFFSET 0.000000 -0.000004 21.505203
								CHANNELS 3 Xrotation Yrotation Zrotation
								JOINT LeftForeArmRoll
								{
									OFFSET 0.000000 0.000000 8.285324
									CHANNELS 3 Xrotation Yrotation Zrotation
									JOINT LeftHand
									{
										OFFSET 0.000000 -0.000004 16.626801
										CHANNELS 3 Xrotation Yrotation Zrotation
										End Site
										{
											OFFSET 0.000000 0.000000 0.100006
										}
									}
								}
							}
						}
					}
				}
			}
		}
	}
	JOINT RightUpLeg
	{
		OFFSET -7.815102 1.202171 -1.433090
		CHANNELS 3 Xrotation Yrotation Zrotation
		JOINT RightUpLegRoll
		{
			OFFSET 0.000000 -0.000004 19.495903
			CHANNELS 3 Xrotation Yrotation Zrotation
			JOINT RightLeg
			{
				OFFSET 0.000000 0.000004 -24.142700
				CHANNELS 3 Xrotation Yrotation Zrotation
				JOINT RightLegRoll
				{
					OFFSET 0.000000 -0.000004 24.221703
					CHANNELS 3 Xrotation Yrotation Zrotation
					JOINT RightFoot
					{
						OFFSET 0.000000 -0.000004 20.160507
						CHANNELS 3 Xrotation Yrotation Zrotation
						JOINT RightToeBase
						{
							OFFSET 0.000000 -0.000004 16.853195
							CHANNELS 3 Xrotation Yrotation Zrotation
							End Site
							{
								OFFSET 0.007145 0.940781 8.161865
							}
						}
					}
				}
			}
		}
	}
	JOINT LeftUpLeg
	{
		OFFSET 7.815102 1.202171 -1.433090
		CHANNELS 3 Xrotation Yrotation Zrotation
		JOINT LeftUpLegRoll
		{
			OFFSET 0.000000 -0.000004 19.496002
			CHANNELS 3 Xrotation Yrotation Zrotation
			JOINT LeftLeg
			{
				OFFSET 0.000000 -0.000004 24.142609
				CHANNELS 3 Xrotation Yrotation Zrotation
				JOINT LeftLegRoll
				{
					OFFSET 0.000000 -0.000004 24.445602
					CHANNELS 3 Xrotation Yrotation Zrotation
					JOINT LeftFoot
					{
						OFFSET 0.000000 -0.000004 19.936600
						CHANNELS 3 Xrotation Yrotation Zrotation
						JOINT LeftToeBase
						{
							OFFSET 0.000000 -0.000004 16.853195
							CHANNELS 3 Xrotation Yrotation Zrotation
							End Site
							{
								OFFSET -0.032013 0.940781 8.161865
							}
						}
					}
				}
			}
		}
	}
}
MOTION
Frames: 8
Frame Time: 0.041667
51.137703 -8.182476 51.917995 -22.038293 2.437974 3.925985 2.786260 -0.926763 0.481359 9.566344 -1.809105 1.015723 11.211684 -1.796815 1.037360 23.062801 -11.599518 1.893289 -15.380372 12.190185 1.375672 -23.447000 -71.733515 -27.357573 107.882537 -59.314510 98.330491 -0.000000 0.000006 0.000000 50.718625 -13.007708 5.262680 0.000001 0.000002 -3.005510 -5.000175 -7.998671 0.000133 0.228991 58.347308 -0.269873 -50.183729 124.630844 62.184877 0.000000 0.000001 -0.000001 50.716374 10.326378 -3.300269 0.000008 -0.000004 3.009742 -5.000227 7.998791 -0.000136 -74.544719 -172.200585 4.725962 179.999991 0.000005 -1.475999 84.296412 2.275046 0.403149 -0.000005 0.000003 1.625380 67.499119 6.937426 2.116622 25.458562 -7.355267 0.008537 -77.041733 176.622039 4.834867 -0.000003 -0.000004 -1.393420 -94.639231 -5.830654 -4.147393 -0.000008 -0.000003 -1.368320 65.214906 -6.212759 -3.970093 25.456953 7.353966 -0.000006 
51.151405 -8.201168 51.906494 -22.048827 2.433703 3.938780 2.789985 -0.927258 0.485402 9.575197 -1.810725 1.024139 11.220498 -1.798329 1.045790 23.014088 -11.672769 1.881439 -15.339777 12.255478 1.361090 -23.586592 -71.736698 -27.511102 107.842717 -59.315077 98.275658 -0.000001 0.000008 -0.000001 50.740867 -13.002419 5.263638 0.000002 0.000004 -3.005509 -5.000176 -7.998669 0.000134 0.271274 58.300213 -0.325623 -50.141208 124.678997 62.137113 -0.000002 -0.000000 -0.000000 50.704029 10.322335 -3.297248 0.000007 -0.000006 3.009741 -5.000229 7.998793 -0.000136 -74.530717 -172.181870 4.726394 179.999991 0.000005 -1.476996 84.292819 2.274964 0.402316 -0.000005 0.000003 1.625940 67.501598 6.937703 2.115821 25.458562 -7.355267 0.008537 -77.027779 176.634948 4.831632 -0.000004 -0.000005 -1.393050 -94.641710 -5.830218 -4.146491 -0.000008 -0.000002 -1.367312 65.212563 -6.211981 -3.972056 25.456950 7.353963 -0.000006 
51.151802 -8.195740 51.913078 -22.059669 2.429485 3.951808 2.793756 -0.927704 0.489488 9.584161 -1.812294 1.032652 11.229512 -1.799804 1.054324 22.964843 -11.748053 1.869546 -15.298671 12.322561 1.346431 -23.729015 -71.740380 -27.667732 107.797939 -59.316361 98.214193 -0.000001 0.000007 -0.000000 50.763171 -12.997326 5.264938 0.000003 0.000004 -3.005509 -5.000179 -7.998675 0.000133 0.313679 58.251617 -0.381691 -50.098082 124.728038 62.088516 -0.000002 0.000001 0.000000 50.691130 10.318143 -3.294124 0.000007 -0.000006 3.009741 -5.000230 7.998790 -0.000136 -74.516476 -172.162978 4.726954 179.999991 0.000005 -1.477993 84.289117 2.274843 0.401385 -0.000005 0.000002 1.626540 67.504187 6.937911 2.115000 25.458562 -7.355267 0.008537 -77.013327 176.648267 4.826812 -0.000004 -0.000005 -1.392630 -94.644627 -5.829694 -4.147630 -0.000008 -0.000002 -1.366219 65.209940 -6.210953 -3.974478 25.456953 7.353965 -0.000007 
51.157204 -8.196449 51.918892 -22.070710 2.425300 3.964988 2.797551 -0.928115 0.493603 9.593214 -1.813833 1.041237 11.238525 -1.801238 1.062922 22.915228 -11.824807 1.857608 -15.257331 12.390842 1.331693 -23.873391 -71.744341 -27.826539 107.753153 -59.317618 98.152229 -0.000003 0.000006 0.000000 50.785499 -12.992352 5.266291 0.000004 0.000004 -3.005510 -5.000177 -7.998673 0.000134 0.356122 58.202009 -0.437938 -50.053047 124.778458 62.037577 0.000000 0.000000 -0.000000 50.677804 10.313908 -3.290981 0.000007 -0.000006 3.009739 -5.000228 7.998793 -0.000136 -74.501866 -172.143908 4.727587 179.999991 0.000004 -1.477993 84.285381 2.274655 0.400447 -0.000005 0.000002 1.627170 67.506687 6.938183 2.114196 25.458564 -7.355269 0.008537 -76.998744 176.661340 4.823214 -0.000004 -0.000005 -1.392180 -94.647502 -5.829322 -4.146752 -0.000008 -0.000002 -1.365059 65.206996 -6.209873 -3.977106 25.456952 7.353963 -0.000006 
51.161404 -8.199802 51.918091 -22.081848 2.421132 3.978258 2.801348 -0.928504 0.497736 9.602305 -1.815342 1.049861 11.247640 -1.802643 1.071561 22.865491 -11.902361 1.845585 -15.215928 12.459821 1.316882 -24.018872 -71.748371 -27.986560 107.708245 -59.318670 98.089863 -0.000002 0.000006 0.000000 50.807964 -12.987472 5.267926 0.000001 0.000001 -3.005510 -5.000176 -7.998672 0.000133 0.398539 58.151787 -0.494224 -50.007196 124.829616 61.985544 0.000000 -0.000000 -0.000000 50.664171 10.309664 -3.287831 0.000009 -0.000001 3.009740 -5.000230 7.998792 -0.000135 -74.487291 -172.124824 4.728321 179.999991 0.000005 -1.479004 84.281536 2.274482 0.399415 -0.000004 0.000003 1.627810 67.509262 6.938391 2.113476 25.458564 -7.355268 0.008537 -76.984093 176.674413 4.819700 -0.000004 -0.000004 -1.391720 -94.650542 -5.828953 -4.146892 -0.000008 -0.000002 -1.363870 65.203943 -6.208723 -3.979826 25.456953 7.353963 -0.000005 
51.164005 -8.195782 51.924301 -22.092887 2.416967 3.991543 2.805160 -0.928889 0.501871 9.611417 -1.816851 1.058496 11.256753 -1.804057 1.080212 22.815682 -11.980148 1.833447 -15.174334 12.529024 1.301958 -24.164692 -71.752367 -28.146976 107.661793 -59.320104 98.025577 -0.000001 0.000007 0.000001 50.830524 -12.982565 5.269479 0.000004 0.000003 -3.005509 -5.000178 -7.998674 0.000134 0.440864 58.101346 -0.550415 -49.962612 124.880146 61.935104 -0.000001 0.000001 -0.000000 50.650610 10.305271 -3.284565 0.000009 -0.000005 3.009741 -5.000231 7.998790 -0.000136 -74.472551 -172.105618 4.728976 179.999991 0.000005 -1.480002 84.277697 2.274285 0.398582 -0.000004 0.000002 1.628451 67.511851 6.938637 2.112660 25.458565 -7.355267 0.008536 -76.969306 176.687705 4.815148 -0.000004 -0.000004 -1.391250 -94.653622 -5.828419 -4.147028 -0.000008 -0.000002 -1.362680 65.200856 -6.207495 -3.982831 25.456953 7.353966 -0.000005 
51.168804 -8.200539 51.923397 -22.104029 2.412781 4.004792 2.808965 -0.929283 0.505998 9.620502 -1.818371 1.067112 11.265865 -1.805461 1.088842 22.765943 -12.057420 1.821099 -15.132909 12.597754 1.286926 -24.309996 -71.756103 -28.306845 107.616939 -59.321204 97.963341 -0.000000 0.000006 0.000000 50.852975 -12.977625 5.270928 0.000002 0.000001 -3.005510 -5.000176 -7.998674 0.000134 0.483018 58.051192 -0.606377 -49.917092 124.931345 61.883358 -0.000002 -0.000000 -0.000000 50.637076 10.301002 -3.281401 0.000008 -0.000005 3.009744 -5.000228 7.998793 -0.000137 -74.457982 -172.086480 4.729628 179.999991 0.000004 -1.480999 84.273866 2.274116 0.397551 -0.000005 0.000002 1.629080 67.514330 6.938872 2.111954 25.458564 -7.355268 0.008537 -76.954567 176.700832 4.811382 -0.000003 -0.000004 -1.390800 -94.656662 -5.828049 -4.147163 -0.000009 -0.000002 -1.361500 65.197899 -6.206324 -3.985642 25.456950 7.353964 -0.000006 
51.175304 -8.200417 51.923393 -22.114971 2.408573 4.017919 2.812744 -0.929701 0.510105 9.629526 -1.819910 1.075678 11.274879 -1.806896 1.097424 22.716531 -12.133693 1.808611 -15.091641 12.665623 1.271781 -24.453831 -71.759381 -28.465121 107.572105 -59.322283 97.901521 -0.000002 0.000006 0.000001 50.875299 -12.972635 5.272278 0.000003 0.000003 -3.005509 -5.000176 -7.998671 0.000133 0.524948 58.001721 -0.661978 -49.873676 124.981137 61.834228 0.000001 0.000000 0.000000 50.623870 10.296790 -3.278286 0.000009 -0.000003 3.009739 -5.000230 7.998794 -0.000136 -74.443550 -172.067382 4.729959 179.999991 0.000005 -1.480998 84.270143 2.273950 0.396616 -0.000004 0.000002 1.629700 67.516919 6.939119 2.111138 25.458564 -7.355266 0.008536 -76.940052 176.714015 4.807294 -0.000003 -0.000004 -1.390360 -94.659482 -5.827593 -4.146295 -0.000008 -0.000002 -1.360360 65.195064 -6.205260 -3.988166 25.456952 7.353965 -0.000005 
